<svg width="388" height="121" viewBox="0 0 388 121" fill="none" xmlns="http://www.w3.org/2000/svg">
<g clip-path="url(#clip0_1021_14)">
<path d="M35.2451 91.243C33.2818 91.243 31.9451 90.9088 29.9818 89.9481L29.8564 89.8854V84.6641L30.2533 85.0818C32.321 87.1286 34.702 88.2355 37.1666 88.2355C42.0958 88.2355 44.3515 84.0167 44.3515 80.0903C44.3515 76.1638 42.3046 73.3026 40.5502 71.2349L34.7647 64.489C31.5482 60.6879 30.1697 57.6595 30.1697 54.3388C30.1697 46.4442 35.7672 42.1836 41.0306 42.1836C43.3698 42.1836 44.6856 42.5178 46.273 43.1652L46.4192 43.2279V47.7391L46.0432 47.4258C43.8711 45.567 42.6597 44.8987 40.0698 44.8987C36.54 44.8987 33.8666 47.8435 33.8666 51.749C33.8666 55.6546 35.7046 58.0564 37.6679 60.2911L43.1401 66.3896C46.0641 69.6477 48.0274 72.8849 48.0274 78.1271C48.0274 85.4787 42.409 91.243 35.2451 91.243Z" fill="black"/>
<path d="M82.5104 90.594H77.8527L74.3021 73.2175H62.7729L58.5748 90.594H55.5254L55.6089 90.3016L67.5558 42.8086H72.4223L82.4895 90.594H82.5104ZM63.3368 70.8157H73.8844L68.997 47.0065L63.3159 70.8157H63.3368Z" fill="black"/>
<path d="M100.556 90.7406H100.243L93.2461 90.5944V42.8299L99.9088 42.6211C100.285 42.6211 100.661 42.6211 101.016 42.6211C109.767 42.6211 113.673 46.0254 113.673 53.6903C113.673 59.4128 111.208 63.381 106.53 65.2189C112.273 66.6809 114.968 70.294 114.968 76.5387C114.968 85.1643 109.328 90.7406 100.556 90.7406ZM97.5904 88.2135H100.243C107.303 88.2135 110.31 85.0181 110.31 77.4994C110.31 69.9807 107.219 66.66 100.556 66.66H97.5695V88.2135H97.5904ZM97.5904 64.4044H100.243C106.154 64.4044 109.161 61.021 109.161 54.3377C109.161 47.6544 106.927 44.8976 100.89 44.8976H97.5904V64.3835V64.4044Z" fill="black"/>
<path d="M144.919 90.5965H128.982V42.832H144.584V45.6724L133.306 45.2338V64.3856L143.289 64.0723V67.1215L133.306 66.7874V87.8814L144.919 87.422V90.5965Z" fill="black"/>
<path d="M142.83 32.0319L134.788 40.0518H132.345L138.464 30.2148" fill="black"/>
<path d="M196.423 90.5965H192.288V49.1185L181.866 90.5965H179.589L169.167 49.4109V90.5965H166.326V42.832H171.569L181.552 81.6994L191.306 42.832H196.423V90.5965Z" fill="black"/>
<path d="M234.123 90.594H229.466L229.424 90.406L225.915 73.2175H214.386L210.209 90.594H207.159L207.222 90.3016L219.169 42.8086H224.056V42.9757L234.123 90.5731V90.594ZM214.95 70.8157H225.518L220.631 47.0065L214.95 70.8157Z" fill="black"/>
<path d="M247.365 91.2428C245.381 91.2428 244.065 90.9087 242.102 89.9479L241.977 89.8853V84.664L242.373 85.0817C244.441 87.1284 246.843 88.2353 249.308 88.2353C254.237 88.2353 256.472 84.0165 256.472 80.0901C256.472 76.1637 254.425 73.3024 252.67 71.2348L246.864 64.4888C243.668 60.7295 242.311 57.7012 242.311 54.3804C242.311 46.4858 247.908 42.2461 253.172 42.2461C255.511 42.2461 256.806 42.5803 258.414 43.2277L258.56 43.2904V47.8016L258.184 47.4883C256.012 45.6295 254.78 44.9612 252.211 44.9612C248.681 44.9612 246.008 47.906 246.008 51.8115C246.008 55.7171 247.846 58.098 249.809 60.3536L255.281 66.4521C258.205 69.7102 260.168 72.9474 260.168 78.1896C260.168 85.5411 254.55 91.3055 247.386 91.3055" fill="black"/>
<path d="M274.392 91.2428C272.429 91.2428 271.113 90.9087 269.15 89.9479L269.024 89.8853V84.664L269.421 85.0817C271.468 87.1284 273.87 88.2353 276.335 88.2353C281.264 88.2353 283.499 84.0165 283.499 80.0901C283.499 76.1637 281.452 73.3024 279.697 71.2348L273.891 64.4888C270.695 60.7295 269.338 57.7012 269.338 54.3804C269.338 46.4858 274.935 42.2461 280.199 42.2461C282.538 42.2461 283.854 42.5803 285.441 43.2277L285.587 43.2904V47.8016L285.19 47.4883C283.018 45.6295 281.807 44.9612 279.238 44.9612C275.687 44.9612 273.035 47.906 273.035 51.8115C273.035 55.7171 274.873 58.1189 276.836 60.3536L282.308 66.4521C285.232 69.7102 287.195 72.9474 287.195 78.1896C287.195 85.5411 281.577 91.3055 274.413 91.3055" fill="black"/>
<path d="M309.795 91.243C301.963 91.243 297.66 82.4712 297.66 66.5566C297.66 54.4223 301.796 42.1836 311.09 42.1836C318.922 42.1836 323.225 50.8301 323.225 66.5566C323.225 78.8372 319.068 91.243 309.795 91.243ZM310.442 44.3974C305.325 44.3974 302.631 52.1876 302.631 66.8908C302.631 85.1236 305.764 88.8829 310.442 88.8829C315.706 88.8829 318.254 81.4896 318.254 66.2643C318.254 47.0499 314.494 44.4183 310.442 44.4183" fill="black"/>
<path d="M357.999 90.5965H354.26L354.198 90.4503L339.765 48.6172V90.5965H336.925V42.832H342.293L342.334 42.9782L355.158 80.1121V42.832H357.999V90.5965Z" fill="black"/>
</g>
<defs>
<clipPath id="clip0_1021_14">
<rect width="328" height="61" fill="white" transform="translate(30 30)"/>
</clipPath>
</defs>
</svg>
