<svg xmlns="http://www.w3.org/2000/svg" fill="none" viewBox="0 0 35 39" height="39" width="35">
<path fill="#333333" d="M34.5833 7.04819H20.4869C20.3572 7.04819 20.252 6.94294 20.252 6.81325V0.23494C20.252 0.105253 20.3572 0 20.4869 0H34.5833C34.713 0 34.8182 0.105253 34.8182 0.23494V6.81325C34.8182 6.94294 34.713 7.04819 34.5833 7.04819ZM20.7218 6.57831H34.3483V0.46988H20.7218V6.57831Z"></path>
<path fill="#333333" d="M32.7036 10.807H22.3663C22.2366 10.807 22.1313 10.7018 22.1313 10.5721V6.81306C22.1313 6.68338 22.2366 6.57812 22.3663 6.57812H32.7036C32.8333 6.57812 32.9386 6.68338 32.9386 6.81306V10.5721C32.9386 10.7018 32.8333 10.807 32.7036 10.807ZM22.6012 10.3372H32.4687V7.048H22.6012V10.3372Z"></path>
<path fill="#333333" d="M34.5833 39.0001H20.4869C20.3572 39.0001 20.252 38.8948 20.252 38.7651V10.5723C20.252 10.4427 20.3572 10.3374 20.4869 10.3374H34.5833C34.713 10.3374 34.8182 10.4427 34.8182 10.5723V38.7651C34.8182 38.8948 34.713 39.0001 34.5833 39.0001ZM20.7218 38.5302H34.3483V10.8073H20.7218V38.5302Z"></path>
<path fill="#333333" d="M16.1639 19.1914H0V19.6613H16.1639V19.1914Z"></path>
<path fill="#333333" d="M16.1642 22.5752H6.11914V23.0451H16.1642V22.5752Z"></path>
<path fill="#333333" d="M16.1639 25.958H2.28271V26.4279H16.1639V25.958Z"></path>
<path fill="#333333" d="M26.6811 31.2378C26.0694 31.2378 25.6529 31.1356 25.0411 30.834L25 30.8136V29.1932L25.1234 29.321C25.766 29.9599 26.5166 30.2973 27.2827 30.2973C28.825 30.2973 29.5242 28.9887 29.5242 27.767C29.5242 26.5453 28.8867 25.661 28.3314 25.0118L26.5218 22.911C25.5295 21.7455 25.1028 20.805 25.1028 19.7724C25.1028 17.3188 26.8508 16 28.496 16C29.226 16 29.6322 16.1022 30.1308 16.3016L30.1771 16.322V17.7277L30.0589 17.6306C29.3802 17.0479 28.9998 16.8434 28.1926 16.8434C27.0873 16.8434 26.2544 17.7584 26.2544 18.975C26.2544 20.1916 26.8251 20.9327 27.442 21.6279L29.154 23.5244C30.0691 24.5365 30.6809 25.5435 30.6809 27.169C30.6809 29.4539 28.9278 31.2429 26.6863 31.2429L26.6811 31.2378Z"></path>
</svg>
