<svg width="1335" height="248" viewBox="0 0 1335 248" fill="none" xmlns="http://www.w3.org/2000/svg">
<g clip-path="url(#clip0_509_243)">
<path d="M21.3369 248.978C13.3511 248.978 7.91397 247.619 -0.0718124 243.713L-0.581543 243.459V222.231L1.0326 223.929C9.44316 232.251 19.128 236.751 29.1527 236.751C49.2021 236.751 58.3773 219.599 58.3773 203.636C58.3773 187.673 50.0517 176.04 42.9155 167.634L19.3829 140.208C6.29982 124.754 0.692784 112.442 0.692784 98.9413C0.692784 66.8452 23.4608 49.5234 44.8694 49.5234C54.3844 49.5234 59.7366 50.882 66.1932 53.5142L66.7878 53.769V72.1096L65.2587 70.8359C56.4233 63.2789 51.4959 60.5618 40.9615 60.5618C26.6041 60.5618 15.7298 72.5342 15.7298 88.4124C15.7298 104.291 23.2059 114.055 31.1917 123.141L53.4499 147.935C65.3436 161.181 73.3294 174.342 73.3294 195.654C73.3294 225.543 50.4765 248.978 21.3369 248.978Z" fill="#333333"/>
<path d="M213.586 246.361H194.641L180.199 175.715H133.304L116.228 246.361H103.824L104.164 245.172L152.758 52.0859H172.553L213.501 246.361H213.586ZM135.597 165.951H178.5L158.62 69.1529L135.512 165.951H135.597Z" fill="#333333"/>
<path d="M286.988 246.923H285.713L257.253 246.328V52.1382L284.354 51.2891C285.883 51.2891 287.412 51.2891 288.857 51.2891C324.453 51.2891 340.34 65.1295 340.34 96.2916C340.34 119.557 330.315 135.69 311.285 143.162C334.648 149.106 345.607 163.795 345.607 189.184C345.607 224.252 322.669 246.923 286.988 246.923ZM274.924 236.648H285.713C314.428 236.648 326.662 223.657 326.662 193.089C326.662 162.522 314.088 149.021 286.988 149.021H274.839V236.648H274.924ZM274.924 139.851H285.713C309.756 139.851 321.989 126.095 321.989 98.9238C321.989 71.7525 312.899 60.5443 288.347 60.5443H274.924V139.766V139.851Z" fill="#333333"/>
<path d="M467.433 246.362H402.612V52.1719H466.073V63.7197L420.198 61.9366V139.799L460.806 138.526V150.923L420.198 149.564V235.324L467.433 233.455V246.362Z" fill="#333333"/>
<path d="M458.938 8.27001L426.23 40.8756H416.29L441.182 0.882812" fill="#333333"/>
<path d="M676.931 246.362H660.109V77.7299L617.717 246.362H608.457L566.064 78.9186V246.362H554.51V52.1719H575.834L616.443 210.19L656.117 52.1719H676.931V246.362Z" fill="#333333"/>
<path d="M830.275 246.361H811.33L811.16 245.597L796.887 175.715H749.992L733.001 246.361H720.598L720.853 245.172L769.447 52.0859H789.326V52.7652L830.275 246.276V246.361ZM752.286 165.951H795.273L775.394 69.1529L752.286 165.951Z" fill="#333333"/>
<path d="M884.136 249.044C876.065 249.044 870.713 247.685 862.728 243.779L862.218 243.524V222.297L863.832 223.995C872.242 232.316 882.012 236.816 892.037 236.816C912.086 236.816 921.177 219.665 921.177 203.701C921.177 187.738 912.851 176.105 905.715 167.699L882.097 140.273C869.099 124.989 863.577 112.677 863.577 99.1767C863.577 67.0806 886.345 49.8438 907.754 49.8438C917.269 49.8438 922.536 51.2023 929.077 53.8345L929.672 54.0893V72.4299L928.143 71.1563C919.308 63.5992 914.295 60.8821 903.846 60.8821C889.488 60.8821 878.614 72.8545 878.614 88.7327C878.614 104.611 886.09 114.291 894.076 123.461L916.334 148.255C928.228 161.501 936.214 174.662 936.214 195.975C936.214 225.863 913.361 249.298 884.221 249.298" fill="#333333"/>
<path d="M994.072 249.044C986.086 249.044 980.734 247.685 972.748 243.779L972.238 243.524V222.297L973.852 223.995C982.178 232.316 991.948 236.816 1001.97 236.816C1022.02 236.816 1031.11 219.665 1031.11 203.701C1031.11 187.738 1022.79 176.105 1015.65 167.699L992.033 140.273C979.035 124.989 973.513 112.677 973.513 99.1767C973.513 67.0806 996.281 49.8438 1017.69 49.8438C1027.2 49.8438 1032.56 51.2023 1039.01 53.8345L1039.61 54.0893V72.4299L1037.99 71.1563C1029.16 63.5992 1024.23 60.8821 1013.78 60.8821C999.339 60.8821 988.55 72.8545 988.55 88.7327C988.55 104.611 996.026 114.376 1004.01 123.461L1026.27 148.255C1038.16 161.501 1046.15 174.662 1046.15 195.975C1046.15 225.863 1023.3 249.298 994.157 249.298" fill="#333333"/>
<path d="M1138.07 248.978C1106.21 248.978 1088.71 213.316 1088.71 148.614C1088.71 99.2809 1105.53 49.5234 1143.34 49.5234C1175.2 49.5234 1192.7 84.6763 1192.7 148.614C1192.7 198.541 1175.79 248.978 1138.07 248.978ZM1140.71 58.5239C1119.89 58.5239 1108.93 90.1955 1108.93 149.972C1108.93 224.099 1121.68 239.383 1140.71 239.383C1162.11 239.383 1172.48 209.325 1172.48 147.425C1172.48 69.3076 1157.19 58.6088 1140.71 58.6088" fill="#333333"/>
<path d="M1334.14 246.362H1318.94L1318.68 245.768L1259.98 75.692V246.362H1248.42V52.1719H1270.26L1270.43 52.7662L1322.59 203.737V52.1719H1334.14V246.362Z" fill="#333333"/>
</g>
<defs>
<clipPath id="clip0_509_243">
<rect width="1334.15" height="248" fill="white"/>
</clipPath>
</defs>
</svg>
