<svg xmlns="http://www.w3.org/2000/svg" fill="none" viewBox="0 0 20 27" height="27" width="20">
<g clip-path="url(#clip0_828_197)">
<path fill="#333333" d="M8.75333 25.6433L9.80667 26.3833C9.92333 26.4667 10.0767 26.4667 10.1933 26.3833L11.2467 25.64C13.1867 24.2767 15.1933 22.87 16.76 21.3733C18.97 19.2633 20 17.3 20 15.1933V7.08C20 5.73333 19.26 4.49333 18.0733 3.85333L11.74 0.44C10.6533 -0.146667 9.34667 -0.146667 8.26 0.44L1.92667 3.85333C0.74 4.49333 0 5.73 0 7.08V15.1933C0 17.3 1.03 19.2633 3.24 21.3733C4.80667 22.87 6.81333 24.28 8.75333 25.6433ZM0.666667 15.1933V7.08C0.666667 5.97667 1.27333 4.96333 2.24333 4.44L8.57667 1.02667C9.46667 0.546667 10.5333 0.546667 11.4233 1.02667L17.7567 4.44C18.7267 4.96333 19.3333 5.97667 19.3333 7.08V15.1933C19.3333 17.1033 18.37 18.9133 16.3 20.89C14.77 22.3533 12.7833 23.7467 10.8633 25.0933L10 25.7033L9.13667 25.0967C7.21667 23.7633 5.23 22.3533 3.69667 20.89C1.63 18.9167 0.666667 17.1067 0.666667 15.1933Z"></path>
<path fill="#333333" d="M7.95994 16.4632C8.01994 16.5332 8.1066 16.5765 8.1966 16.5799C8.28327 16.5799 8.3666 16.5465 8.42994 16.4865L15.4299 9.66653C15.5599 9.53653 15.5633 9.32653 15.4333 9.19319C15.3033 9.05986 15.0933 9.05986 14.9599 9.18986L8.23327 15.7599L5.12327 12.1332C5.0266 11.9765 4.81994 11.9299 4.66327 12.0265C4.5066 12.1232 4.45994 12.3299 4.5566 12.4865C4.57327 12.5132 4.59327 12.5365 4.6166 12.5565L7.9566 16.4632H7.95994Z"></path>
</g>
<defs>
<clipPath id="clip0_828_197">
<rect fill="white" height="26.4433" width="20"></rect>
</clipPath>
</defs>
</svg>
