<svg xmlns="http://www.w3.org/2000/svg" fill="none" viewBox="0 0 41 28" height="28" width="41">
<path fill="#333333" d="M38.6576 2.21597H18.6557L19.127 0.447199C19.1933 0.200238 19.0473 0 18.8017 0C18.5561 0 18.3039 0.200238 18.2375 0.447199L11.016 27.5528C10.9496 27.7998 11.0957 28 11.3413 28C11.5868 28 11.8391 27.7998 11.9054 27.5528L14.6069 17.4141H34.6088C34.8543 17.4141 35.1066 17.2138 35.1729 16.9669L38.9828 2.66317C39.0492 2.41621 38.9032 2.21597 38.6576 2.21597ZM21.1547 16.523L24.7289 3.11371H31.6651L28.0908 16.523H21.1547ZM16.5085 10.2756L18.4168 3.11037H23.8395L20.2653 16.5197H14.8425L16.5085 10.2722V10.2756ZM34.403 16.523H28.9802L32.5545 3.11371H37.9739L34.3997 16.523H34.403Z"></path>
</svg>
